<svg width="218" height="32" viewBox="0 0 218 32" fill="none" xmlns="http://www.w3.org/2000/svg">
<path fill-rule="evenodd" clip-rule="evenodd" d="M133.565 31.4349C131.046 31.4349 128.775 30.9387 126.754 29.9463C124.761 28.9247 123.194 27.5092 122.051 25.6995C120.938 23.8899 120.381 21.8614 120.381 19.614V4.6408C120.381 3.12306 120.923 1.97015 122.007 1.18209C123.121 0.39403 124.732 0 126.841 0V19.614C126.841 21.5111 127.442 23.0289 128.643 24.1672C129.874 25.2763 131.514 25.8309 133.565 25.8309C135.616 25.8309 137.242 25.2763 138.443 24.1672C139.674 23.0289 140.289 21.5111 140.289 19.614V4.6408C140.289 3.12306 140.831 1.97015 141.915 1.18209C143.028 0.39403 144.64 0 146.749 0V19.614C146.749 21.8614 146.178 23.8899 145.035 25.6995C143.922 27.5092 142.354 28.9247 140.333 29.9463C138.341 30.9387 136.085 31.4349 133.565 31.4349ZM33.0695 4.63079C33.1461 4.73059 33.2162 4.8835 33.266 5.04634V6.0147C33.2281 6.16067 33.1787 6.29842 33.1242 6.40007C33.0013 6.6302 32.5859 6.98267 32.2009 7.18368C31.7392 7.42488 30.9476 7.55483 29.872 7.56613C28.9758 7.57569 26.9384 7.44857 25.3444 7.28363C23.6872 7.1124 21.8345 7.04677 21.0178 7.13043C20.2322 7.21083 18.7012 7.57786 17.6156 7.94598C15.9573 8.50836 15.2947 8.6181 13.4694 8.63266C12.2745 8.64222 10.808 8.58398 10.2106 8.50336L9.12431 8.3569L9.84233 8.68176C10.2371 8.86061 10.6677 8.94036 10.7991 8.85909C10.9305 8.77781 10.9781 8.80846 10.9049 8.92689C10.8295 9.04879 11.2471 9.25241 11.8656 9.39518C12.4672 9.53403 13.4652 9.64703 14.0833 9.64616C14.7016 9.64551 16.5116 9.44994 18.1055 9.21155C19.6995 8.97339 21.3991 8.77847 21.8823 8.77847C22.3654 8.77847 23.1434 8.8932 23.6112 9.03336C24.0789 9.17353 24.7487 9.6153 25.0998 10.0151C25.4506 10.415 25.7987 10.9848 25.8732 11.2814C25.9477 11.578 25.9484 12.0608 25.8747 12.3542C25.778 12.7388 25.5139 12.9507 24.9277 13.1137C24.4806 13.2378 23.826 13.3399 23.4734 13.3405C23.1206 13.3412 21.1653 13.0368 19.1284 12.6636C15.955 12.0826 15.0979 12.0026 13.1435 12.105C11.2403 12.2047 10.3401 12.3898 7.71216 13.2225C5.97957 13.7717 3.89699 14.3167 3.08446 14.434C2.27172 14.5514 1.19632 14.5957 0.694679 14.5327C-0.13892 14.4279 -0.170638 14.4407 0.325567 14.6828C0.65992 14.8458 1.91282 14.9516 3.58436 14.9581C5.91679 14.9673 6.65262 14.8773 8.79843 14.3208C10.7129 13.824 11.7791 13.6719 13.3607 13.6702C14.9313 13.6685 15.5934 13.7602 16.1307 14.0537C16.6178 14.3199 16.8368 14.5981 16.8368 14.9505C16.8368 15.2317 16.693 15.5812 16.517 15.727C16.3412 15.873 15.8279 16.0777 15.3764 16.1818C14.8376 16.3061 13.5106 16.2522 11.5141 16.0249C9.61573 15.8087 7.65611 15.7231 6.30002 15.7967C5.10513 15.8617 3.73644 16.0671 3.25848 16.2528L2.38947 16.591L3.25848 16.4347C3.73644 16.3487 4.95848 16.2928 5.97414 16.3106C6.9898 16.3282 8.41976 16.4984 9.1519 16.6885C9.88404 16.8785 10.7639 17.1805 11.1072 17.3596C11.5091 17.5693 12.3503 17.6857 13.47 17.6866C14.55 17.6875 15.7436 17.5304 16.6202 17.272C17.3964 17.0432 19.0582 16.4667 20.3128 15.9906C21.5675 15.5144 23.3174 15.0057 24.2014 14.8601C25.0857 14.7146 26.2323 14.6535 26.7498 14.7246C27.2673 14.7954 28.0383 14.9988 28.4633 15.1763C28.9949 15.3986 29.3362 15.7394 29.5576 16.2694C29.7433 16.7142 29.8196 17.2777 29.7379 17.603C29.6603 17.9126 29.2745 18.4885 28.8806 18.8822C28.4867 19.2762 27.6542 19.7682 27.0305 19.9753C26.1478 20.2686 25.4819 20.3238 24.0279 20.2245C23.0002 20.1543 20.7908 19.7508 19.1179 19.3277C16.8737 18.7601 15.6208 18.5595 14.3384 18.5624C13.0944 18.5652 12.0755 18.7269 10.7537 19.131C9.73805 19.4416 8.07606 19.9398 7.06041 20.2384C5.5946 20.6691 4.6854 20.7869 2.65061 20.8099C0.188047 20.8377 0.115702 20.8516 0.803959 21.1648C1.33232 21.4051 2.26216 21.4855 4.34475 21.4705C6.5277 21.4551 7.73628 21.3239 9.66744 20.8925C11.0416 20.5857 12.6792 20.2678 13.3064 20.186C13.9339 20.1043 14.9465 20.1063 15.5569 20.1902C16.1848 20.2767 16.8453 20.5213 17.0777 20.7539C17.3037 20.9799 17.4885 21.3647 17.4885 21.6092C17.4885 21.8536 17.2367 22.3056 16.9289 22.6135C16.3886 23.1538 16.3039 23.1685 14.4848 23.0395C13.4483 22.966 11.2078 22.8428 9.50559 22.7659C7.33067 22.6677 6.00695 22.7092 5.0519 22.9056C4.30455 23.0595 3.44858 23.3235 3.14985 23.4928C2.85113 23.6618 2.80225 23.7279 3.04123 23.6394C3.28021 23.551 4.31368 23.438 5.33781 23.388C6.83642 23.3152 7.66328 23.4106 9.57424 23.8776C10.8801 24.1966 12.5256 24.5426 13.2306 24.6464C13.9938 24.7588 14.9504 24.7523 15.5941 24.6301C16.1889 24.5173 17.6649 23.9743 18.8744 23.4232C20.4432 22.7085 21.4467 22.3917 22.3767 22.3176C23.4652 22.2307 23.8412 22.3 24.6551 22.7374C25.1912 23.0256 25.8098 23.5692 26.0294 23.9454C26.2636 24.3465 26.372 24.8092 26.2914 25.0636C26.2091 25.3227 25.8404 25.5839 25.3755 25.7123C24.8591 25.8549 24.0418 25.8527 22.944 25.7058C22.0346 25.5839 20.0619 25.4813 18.5605 25.4774C16.6923 25.4728 15.3547 25.5882 14.324 25.8429C13.4954 26.0478 12.671 26.2964 12.4917 26.3953C12.3125 26.4942 13.339 26.5178 14.7729 26.4481C17.0356 26.3377 17.6237 26.3849 19.2266 26.8053C20.6398 27.1761 21.6368 27.2849 23.4741 27.2691C24.7945 27.2575 26.6032 27.1537 27.4932 27.0381C28.3833 26.9227 29.669 26.8251 30.3506 26.8214C31.0321 26.8177 31.8337 26.9259 32.132 27.062C32.4305 27.198 32.7638 27.565 32.8729 27.878C32.9819 28.1909 32.9982 28.6418 32.9094 28.8802C32.8203 29.1185 32.5298 29.5093 32.2639 29.7483C31.8776 30.0955 31.4903 30.1794 30.3373 30.1657C29.462 30.1553 27.7835 29.863 26.07 29.4228C24.1469 28.9286 22.7124 28.6915 21.574 28.6794C20.6016 28.6691 19.7997 28.7641 19.6567 28.9065C19.4742 29.0879 19.5531 29.124 19.9622 29.0457C20.2655 28.9877 21.1771 29.0542 21.9883 29.1937C22.8949 29.3495 24.4674 29.9117 26.07 30.6529C28.0483 31.5678 29.0036 31.8863 30.0308 31.9737C30.3396 32 30.675 32.006 31.003 31.9942C32.0997 32.0238 34.5513 31.4768 35.5629 31.2382C36.554 31.0478 37.3704 30.7194 38.0122 30.2528C39.0963 29.4647 39.6383 28.3118 39.6383 26.7941V19.7453H47.9881C49.16 19.7453 50.0243 20.0956 50.5809 20.796C51.1669 21.4674 51.4599 22.5327 51.4599 23.9921V31.4349C53.5693 31.4349 55.166 31.0408 56.25 30.2528C57.3633 29.4647 57.92 28.3118 57.92 26.7941V23.7732C57.92 20.6209 56.6455 18.4756 54.0966 17.3373V17.1622C55.5322 16.4909 56.5869 15.5715 57.2608 14.404C57.9639 13.2365 58.3155 11.7917 58.3155 10.0697C58.3155 6.9758 57.4219 4.59702 55.6348 2.93334C53.8769 1.24047 51.3573 0.394031 48.076 0.394031H37.0607C33.3193 0.314153 30.7554 1.29219 29.692 1.82044C29.4324 1.92907 29.1477 2.09451 28.7481 2.33953C28.0701 2.75524 26.8763 3.39128 26.095 3.75288C25.314 4.11469 24.1923 4.55386 23.6029 4.72901C23.0133 4.90415 21.9976 5.11407 21.3461 5.19534C20.5314 5.29726 19.7334 5.23381 18.7923 4.99282C18.0397 4.79985 17.3873 4.67838 17.343 4.72293C17.2987 4.76726 17.973 5.0328 18.8418 5.3129C19.9604 5.67363 21.1006 5.84834 22.7484 5.91158C24.6727 5.98546 25.337 5.92157 26.5871 5.54173C27.4185 5.28922 28.7177 4.78964 29.4742 4.43174C30.2306 4.07362 31.076 3.7807 31.3527 3.7807C31.6293 3.78048 32.0692 3.89434 32.3304 4.0332C32.5913 4.17228 32.9239 4.4413 33.0695 4.63079ZM47.7244 14.2727C49.0721 14.2727 50.0975 13.9078 50.8007 13.1781C51.5038 12.4484 51.8554 11.3977 51.8554 10.0259C51.8554 8.5957 51.5185 7.54495 50.8446 6.87364C50.2001 6.20233 49.16 5.86668 47.7244 5.86668H39.6383V14.2727H47.7244ZM62.7067 3.32737C62.7067 2.51012 63.0143 1.82422 63.6296 1.26966C64.2741 0.685905 65.0505 0.394031 65.9587 0.394031H85.6028C85.6028 2.3204 85.2805 3.7214 84.636 4.59702C83.9914 5.47265 82.9514 5.91046 81.5158 5.91046H69.1668V12.8279H80.6808C80.6808 14.7542 80.3585 16.1552 79.714 17.0309C79.0694 17.9065 78.0294 18.3443 76.5938 18.3443H69.1668V25.5244H82.4387C83.845 25.5244 84.8704 25.9622 85.5149 26.8378C86.1595 27.7135 86.4817 29.1145 86.4817 31.0408H65.9587C65.0505 31.0408 64.2741 30.7636 63.6296 30.209C63.0143 29.6544 62.7067 28.9539 62.7067 28.1075V3.32737ZM91.3536 30.209C91.9982 30.7636 92.7746 31.0408 93.6828 31.0408H103.263C105.871 31.0408 108.185 30.5301 110.207 29.5085C112.257 28.4869 113.84 27.0568 114.953 25.2179C116.095 23.3499 116.667 21.2339 116.667 18.8697V12.4776C116.667 10.1134 116.095 8.01195 114.953 6.17314C113.84 4.33434 112.272 2.91874 110.251 1.92637C108.229 0.904811 105.9 0.394031 103.263 0.394031H93.6828C92.7746 0.394031 91.9982 0.671312 91.3536 1.22587C90.7384 1.78043 90.4307 2.48093 90.4307 3.32737V28.1075C90.4307 28.9539 90.7384 29.6544 91.3536 30.209ZM108.317 23.8607C107.086 24.9699 105.255 25.5244 102.824 25.5244H96.8909V5.91046H102.824C105.255 5.91046 107.086 6.46502 108.317 7.57414C109.577 8.65407 110.207 10.2594 110.207 12.3901V18.9572C110.207 21.1171 109.577 22.7516 108.317 23.8607ZM152.295 1.26966C151.68 1.82422 151.372 2.51012 151.372 3.32737V31.4349C153.657 31.4349 155.298 31.0846 156.294 30.3841C157.32 29.6836 157.832 28.5599 157.832 27.013V18.1254H165.259C166.695 18.1254 167.735 17.6876 168.379 16.812C169.024 15.9363 169.346 14.5353 169.346 12.609H157.832V5.91046H170.533C171.968 5.91046 173.008 5.47265 173.653 4.59702C174.298 3.7214 174.62 2.3204 174.62 0.394031H154.624C153.716 0.394031 152.94 0.685905 152.295 1.26966ZM179.46 4.68458C179.46 3.22521 180.017 2.0869 181.13 1.26966C182.273 0.423218 183.869 0 185.92 0V26.7503C185.92 28.2388 185.349 29.3917 184.206 30.209C183.093 31.0262 181.511 31.4349 179.46 31.4349V4.68458ZM190.309 5.95424H200.9V31.4349C203.01 31.4349 204.607 31.0408 205.691 30.2528C206.804 29.4647 207.361 28.3118 207.361 26.7941V5.95424H212.854C216.223 5.95424 217.908 4.10084 217.908 0.394031H195.363C191.994 0.394031 190.309 2.24743 190.309 5.95424ZM3.54373 14.7941C3.70037 14.8569 3.88786 14.8491 3.95999 14.7769C4.03212 14.7048 3.90394 14.6535 3.67495 14.6628C3.42185 14.6733 3.37037 14.7248 3.54373 14.7941ZM2.33928 21.3154C2.55067 21.3706 2.84396 21.3669 2.99104 21.3073C3.13812 21.2478 2.96519 21.2028 2.60672 21.2072C2.24826 21.2115 2.1279 21.2602 2.33928 21.3154Z" fill="url(#paint0_linear_88_48)"/>
<defs>
<linearGradient id="paint0_linear_88_48" x1="108.954" y1="0" x2="108.954" y2="32" gradientUnits="userSpaceOnUse">
<stop stop-color="#FF6200"/>
<stop offset="1" stop-color="#FFD206"/>
</linearGradient>
</defs>
</svg>
