<svg xmlns="http://www.w3.org/2000/svg" width="256" height="256" viewBox="0 0 256 256" fill="none"><path d="M0 40C0 17.9086 17.9086 0 40 0H216C238.091 0 256 17.9086 256 40V216C256 238.091 238.091 256 216 256H40C17.9086 256 0 238.091 0 216V40Z" fill="black"></path><path d="M252.024 22.5938C254.572 27.8562 256 33.7613 256 40V216C256 223.034 254.185 229.643 250.997 235.386C245.777 236.028 240.293 236.575 235.135 236.901C226.5 237.447 220.5 236.901 215.152 234.365C212.983 233.695 210.924 233.178 208.77 232.638C203.324 231.273 197.271 229.755 187.303 225.212C176.035 220.075 164.978 216.179 158.604 215.1C152.9 214.133 146.49 213.672 144.358 214.074C141.482 214.616 140.927 214.366 142.21 213.109C143.215 212.122 148.853 211.464 155.691 211.535C163.695 211.619 173.782 213.262 187.303 216.687C199.351 219.738 211.153 221.763 217.307 221.836C225.414 221.93 228.138 221.349 230.854 218.943C232.723 217.286 234.766 214.579 235.392 212.927C236.017 211.275 235.902 208.15 235.135 205.981C234.369 203.813 232.025 201.269 229.926 200.327C227.829 199.384 222.193 198.634 217.401 198.66C212.609 198.685 203.569 199.361 197.31 200.161C191.052 200.962 178.335 201.682 169.051 201.762C156.132 201.872 149.122 201.117 139.186 198.548C127.915 195.634 123.78 195.307 107.871 196.072C97.7892 196.556 90.5715 196.392 91.8317 195.706C93.0919 195.021 98.889 193.298 104.715 191.878C111.962 190.113 121.367 189.314 134.502 189.345C145.059 189.373 158.929 190.083 165.323 190.928C173.042 191.946 178.789 191.961 182.42 190.973C185.689 190.083 188.281 188.273 188.86 186.478C189.427 184.715 188.664 181.509 187.018 178.729C185.473 176.122 181.124 172.354 177.354 170.357C171.632 167.326 168.988 166.846 161.335 167.448C154.796 167.961 147.74 170.157 136.709 175.11C128.206 178.929 117.827 182.692 113.645 183.474C109.119 184.32 102.393 184.365 97.0269 183.587C92.07 182.867 80.5004 180.47 71.3183 178.259C57.882 175.023 52.0682 174.361 41.5311 174.866C34.3303 175.212 27.0638 175.995 25.3835 176.608C23.7032 177.221 24.0469 176.763 26.1472 175.592C28.2476 174.419 34.2661 172.589 39.5209 171.523C46.236 170.161 55.5433 169.874 70.8356 170.555C82.8039 171.088 98.5575 171.942 105.845 172.451C118.636 173.345 119.231 173.243 123.03 169.499C125.195 167.365 126.965 164.233 126.965 162.539C126.965 160.844 125.665 158.177 124.077 156.611C122.442 155 117.798 153.304 113.384 152.705C109.091 152.124 101.972 152.11 97.56 152.676C93.15 153.243 81.6353 155.446 71.9736 157.572C58.3953 160.561 49.8975 161.471 34.5487 161.578C19.9057 161.682 13.3678 161.124 9.65279 159.459C4.81352 157.289 5.3222 157.193 22.6369 157C36.9439 156.84 43.3367 156.024 53.6431 153.039C60.7843 150.97 72.4701 147.517 79.6114 145.365C88.905 142.564 96.0691 141.444 104.816 141.424C113.833 141.404 122.642 142.794 138.422 146.728C150.184 149.66 165.719 152.456 172.944 152.943C183.168 153.631 187.85 153.249 194.057 151.216C198.442 149.78 204.296 146.371 207.065 143.641C209.835 140.912 212.548 136.921 213.093 134.775C213.667 132.521 213.131 128.616 211.825 125.534C210.268 121.861 207.869 119.499 204.131 117.959C201.143 116.728 195.722 115.319 192.083 114.828C188.444 114.336 180.382 114.759 174.165 115.768C167.949 116.777 155.645 120.302 146.823 123.602C138.002 126.901 126.318 130.896 120.86 132.482C114.696 134.272 106.304 135.361 98.7103 135.355C90.8373 135.349 84.9226 134.542 82.0967 133.089C79.6832 131.848 73.4966 129.755 68.3488 128.439C63.2009 127.121 53.1466 125.942 46.0053 125.82C38.864 125.696 30.2716 126.083 26.911 126.68L20.8008 127.762L26.911 125.419C30.2716 124.132 39.8951 122.708 48.2966 122.258C57.8316 121.748 71.6101 122.341 84.9578 123.839C98.9959 125.415 108.326 125.788 112.114 124.927C115.289 124.205 118.898 122.787 120.134 121.775C121.371 120.764 122.383 118.343 122.383 116.394C122.383 113.952 120.843 112.024 117.418 110.179C113.641 108.145 108.985 107.509 97.9419 107.521C86.8214 107.533 79.3242 108.588 65.8634 112.03C50.7759 115.887 45.6021 116.51 29.2023 116.447C17.4494 116.402 8.64002 115.668 6.28913 114.539C2.80021 112.861 3.02323 112.772 8.88443 113.498C12.4115 113.935 19.9729 113.628 25.6874 112.815C31.4005 112.001 46.0435 108.225 58.2257 104.419C76.7029 98.6484 83.0331 97.3654 96.4144 96.6742C110.156 95.9649 116.182 96.5191 138.495 100.546C152.817 103.132 166.565 105.241 169.046 105.237C171.525 105.232 176.128 104.525 179.272 103.665C183.393 102.535 185.25 101.067 185.93 98.4015C186.448 96.3685 186.443 93.0224 185.919 90.9668C185.395 88.9112 182.948 84.9627 180.481 82.1918C178.013 79.4209 173.303 76.3594 170.015 75.388C166.726 74.4167 161.256 73.6216 157.858 73.6216C154.461 73.6216 142.511 74.9724 131.303 76.6229C120.096 78.2749 107.37 79.6302 103.023 79.6348C98.6767 79.6408 91.6591 78.8577 87.4293 77.8954C81.9338 76.4783 78.8221 75.4713 73.2033 72.9515L68.1548 70.7001L75.7925 71.7151C79.9932 72.2738 90.3042 72.6774 98.7057 72.6111C111.54 72.5102 116.199 71.7498 127.859 67.8524C135.492 65.3014 146.257 62.7579 151.78 62.2007C157.522 61.6209 170.549 62.0757 182.201 63.2624C193.409 64.4054 207.734 65.2863 214.035 65.2201C221.598 65.1418 227.165 64.2412 230.411 62.5697C233.118 61.1767 236.038 58.7341 236.903 57.1393C238.228 54.46 238.336 53.265 238.409 51.191C238.278 49.3226 237.469 46.0993 236.518 44.8781C235.494 43.565 233.156 41.7006 231.321 40.7368C229.485 39.7746 226.392 38.9855 224.447 38.987C222.501 38.987 216.557 41.017 211.238 43.4987C205.92 45.979 196.785 49.4411 190.939 51.191C182.149 53.8233 177.478 54.266 163.949 53.754C152.362 53.3158 144.346 52.105 136.48 49.6052C130.372 47.6641 125.63 45.8239 125.942 45.5166C126.253 45.2079 130.841 46.0497 136.132 47.387C142.749 49.0571 148.36 49.4968 154.088 48.7905C158.669 48.2273 165.811 46.7726 169.957 45.5588C174.101 44.345 181.988 41.3015 187.479 38.7942C192.972 36.2883 201.366 31.8805 206.133 28.9997C214.132 24.1657 215.115 23.788 226.3 22.2695C230.074 21.7571 240.91 22.037 252.024 22.5938Z" fill="url(#paint0_linear_243_19)"></path><defs><linearGradient id="paint0_linear_243_19" x1="256" y1="31.6138" x2="41.9836" y2="170.447" gradientUnits="userSpaceOnUse"><stop stop-color="#FF6200"></stop><stop offset="1" stop-color="#FFD206"></stop></linearGradient></defs></svg>